<?xml version="1.0" encoding="utf-8"?>
<!-- Generator: Adobe Illustrator 27.5.0, SVG Export Plug-In . SVG Version: 6.00 Build 0)  -->
<svg version="1.1" id="Layer_1" xmlns="http://www.w3.org/2000/svg" xmlns:xlink="http://www.w3.org/1999/xlink" x="0px" y="0px"
	 viewBox="0 0 288 288" style="enable-background:new 0 0 288 288;" xml:space="preserve">
<g>
	<rect x="0" y="0" style="fill:#FFFFFF;" width="288" height="288"/>
	<radialGradient id="SVGID_1_" cx="126.3307" cy="142.0078" r="65.3858" gradientUnits="userSpaceOnUse">
		<stop  offset="0.3321" style="stop-color:#F8B12C"/>
		<stop  offset="0.3962" style="stop-color:#F9BE50"/>
		<stop  offset="0.5008" style="stop-color:#FBD285"/>
		<stop  offset="0.6035" style="stop-color:#FCE2B1"/>
		<stop  offset="0.7019" style="stop-color:#FEEFD3"/>
		<stop  offset="0.7949" style="stop-color:#FEF8EB"/>
		<stop  offset="0.8804" style="stop-color:#FFFDFA"/>
		<stop  offset="0.9512" style="stop-color:#FFFFFF"/>
	</radialGradient>
	<circle style="fill:url(#SVGID_1_);" cx="126.331" cy="142.008" r="65.386"/>
	
		<radialGradient id="SVGID_00000077289577345156409900000015533009480753937592_" cx="52.1641" cy="239.8503" r="72.1879" gradientTransform="matrix(1.1219 0 0 0.9529 144.2605 -80.1203)" gradientUnits="userSpaceOnUse">
		<stop  offset="0.3321" style="stop-color:#76A4FF"/>
		<stop  offset="0.3533" style="stop-color:#81ABFF"/>
		<stop  offset="0.4407" style="stop-color:#A7C5FF"/>
		<stop  offset="0.5314" style="stop-color:#C7DAFF"/>
		<stop  offset="0.6251" style="stop-color:#E0EAFF"/>
		<stop  offset="0.723" style="stop-color:#F1F6FF"/>
		<stop  offset="0.8277" style="stop-color:#FCFDFF"/>
		<stop  offset="0.9512" style="stop-color:#FFFFFF"/>
	</radialGradient>
	
		<ellipse style="fill:url(#SVGID_00000077289577345156409900000015533009480753937592_);" cx="202.783" cy="148.433" rx="80.988" ry="68.787"/>
	
		<radialGradient id="SVGID_00000007394262095342923810000003332102049454528690_" cx="-144.679" cy="241.0402" r="39.6085" gradientTransform="matrix(1.1832 0 0 0.9529 223.0582 -80.1203)" gradientUnits="userSpaceOnUse">
		<stop  offset="0.3321" style="stop-color:#FF96AA"/>
		<stop  offset="0.3792" style="stop-color:#FFA7B8"/>
		<stop  offset="0.4801" style="stop-color:#FFC7D2"/>
		<stop  offset="0.5852" style="stop-color:#FFE0E6"/>
		<stop  offset="0.695" style="stop-color:#FFF1F4"/>
		<stop  offset="0.8125" style="stop-color:#FFFCFC"/>
		<stop  offset="0.9512" style="stop-color:#FFFFFF"/>
	</radialGradient>
	
		<ellipse style="fill:url(#SVGID_00000007394262095342923810000003332102049454528690_);" cx="51.874" cy="149.567" rx="46.866" ry="37.742"/>
	<g>
		<g>
			
				<linearGradient id="SVGID_00000163056045942521898680000009093083808510155394_" gradientUnits="userSpaceOnUse" x1="157.8557" y1="124.777" x2="264.017" y2="124.777">
				<stop  offset="0" style="stop-color:#001E57"/>
				<stop  offset="0.4975" style="stop-color:#0046CE"/>
			</linearGradient>
			<path style="fill:url(#SVGID_00000163056045942521898680000009093083808510155394_);" d="M232.681,76.72
				c-26.314-9.059-57.602,3.736-69.881,28.578c-8.868,17.94-5.394,37.254,7.13,50.015l-8.67,20.431l29.028-8.405
				c24.246,6.523,55.189-3.332,67.963-27.105C272.492,113.727,258.996,85.779,232.681,76.72z"/>
			<path style="fill:#FFFFFF;" d="M158.645,178.063l9.517-22.425c-12.724-13.566-15.375-33.47-6.707-51.004
				c12.583-25.456,44.755-38.614,71.714-29.332c13.744,4.732,24.456,14.672,29.388,27.272c4.792,12.242,3.731,25.869-2.986,38.37
				c-13.611,25.331-45.804,34.062-69.266,27.952L158.645,178.063z M215.035,75.313c-20.83,0-41.55,11.752-50.891,30.649
				c-8.251,16.691-5.56,35.649,6.856,48.3l0.701,0.715l-7.829,18.449l26.4-7.644l0.404,0.109
				c22.37,6.018,53.267-2.199,66.252-26.367c6.294-11.713,7.3-24.447,2.835-35.856c-4.61-11.78-14.66-21.084-27.57-25.529l0,0
				C226.627,76.222,220.826,75.313,215.035,75.313z"/>
		</g>
		<g>
			<path style="fill:#FFFFFF;" d="M204.564,125.562c1.865-2.239,4.457-4.628,7.774-7.169c2.803-2.206,4.859-4.094,6.164-5.665
				c1.306-1.57,1.89-3.459,1.753-5.665c-0.129-2.071-1.085-3.725-2.866-4.963c-1.782-1.237-4.211-1.855-7.285-1.855
				c-3.209,0-6.11,0.652-8.702,1.955c-2.593,1.303-4.781,3.193-6.565,5.665l-11.01-7.72c2.754-4.076,6.615-7.269,11.585-9.575
				c4.97-2.307,10.663-3.46,17.08-3.46c7.084,0,12.829,1.521,17.229,4.562c4.401,3.042,6.762,7.136,7.083,12.283
				c0.196,3.143-0.221,5.85-1.248,8.121c-1.029,2.273-2.346,4.178-3.955,5.715c-1.608,1.538-3.69,3.276-6.242,5.214
				c-2.808,2.14-4.949,3.995-6.421,5.565c-1.473,1.571-2.377,3.426-2.711,5.565h-15.14
				C201.539,130.66,202.699,127.802,204.564,125.562z M199.797,156.845c-1.841-1.637-2.833-3.625-2.979-5.966
				c-0.175-2.808,0.649-5.114,2.476-6.919c1.825-1.805,4.175-2.707,7.05-2.707c2.607,0,4.827,0.786,6.665,2.356
				c1.835,1.572,2.826,3.527,2.972,5.866c0.171,2.742-0.654,5.063-2.473,6.968c-1.821,1.905-4.133,2.858-6.941,2.858
				C203.893,159.302,201.637,158.484,199.797,156.845z"/>
		</g>
	</g>
	<g>
		<g>
			
				<linearGradient id="SVGID_00000117660498458867884020000006597440929695031449_" gradientUnits="userSpaceOnUse" x1="67.4425" y1="129.8561" x2="129.4267" y2="128.3443">
				<stop  offset="0.1262" style="stop-color:#FF7200"/>
				<stop  offset="0.3764" style="stop-color:#FF8700"/>
				<stop  offset="0.7186" style="stop-color:#FF9E00"/>
				<stop  offset="0.9332" style="stop-color:#FFA700"/>
			</linearGradient>
			<path style="fill:url(#SVGID_00000117660498458867884020000006597440929695031449_);" d="M142.808,83.981
				c-24.675-8.495-54.013,3.503-65.528,26.798c-8.316,16.823-5.058,34.933,6.686,46.899l-8.13,19.159l27.22-7.882
				c22.736,6.117,51.751-3.125,63.729-25.416C180.139,118.683,167.483,92.476,142.808,83.981z"/>
			<path style="fill:#FFFFFF;" d="M73.222,179.155l8.977-21.153c-11.923-12.748-14.4-31.428-6.264-47.888
				c11.82-23.911,42.039-36.27,67.361-27.551l0,0c12.914,4.446,22.978,13.786,27.613,25.627c4.504,11.506,3.508,24.311-2.804,36.059
				c-12.781,23.785-42.998,31.992-65.032,26.262L73.222,179.155z M126.259,82.755c-19.497,0-38.892,11-47.635,28.688
				c-7.718,15.615-5.202,33.351,6.412,45.185l0.701,0.715l-7.289,17.176l24.592-7.121l0.404,0.108
				c4.371,1.176,9.094,1.772,13.935,1.772c18.353,0.001,38.465-8.55,48.083-26.449c5.888-10.959,6.831-22.873,2.653-33.546
				c-4.313-11.02-13.716-19.725-25.796-23.883l0,0C137.11,83.606,131.68,82.755,126.259,82.755z"/>
		</g>
		<g>
			<path style="fill:#FFFFFF;" d="M117.048,129.848c1.606-1.927,3.836-3.984,6.692-6.171c2.413-1.899,4.182-3.524,5.306-4.877
				c1.124-1.351,1.627-2.978,1.509-4.877c-0.111-1.783-0.934-3.207-2.467-4.272c-1.534-1.064-3.625-1.597-6.271-1.597
				c-2.762,0-5.26,0.561-7.491,1.683c-2.232,1.122-4.115,2.749-5.651,4.877l-9.477-6.646c2.37-3.509,5.695-6.257,9.973-8.242
				c4.278-1.985,9.179-2.978,14.703-2.978c6.098,0,11.043,1.309,14.831,3.927c3.788,2.619,5.82,6.143,6.097,10.573
				c0.169,2.705-0.19,5.035-1.074,6.991c-0.885,1.957-2.019,3.597-3.404,4.92c-1.385,1.324-3.177,2.82-5.373,4.488
				c-2.417,1.842-4.26,3.439-5.527,4.79c-1.268,1.353-2.047,2.949-2.334,4.79h-13.033
				C114.444,134.236,115.442,131.776,117.048,129.848z M112.945,156.777c-1.585-1.41-2.439-3.121-2.565-5.135
				c-0.151-2.417,0.559-4.402,2.132-5.955c1.571-1.554,3.594-2.331,6.069-2.331c2.244,0,4.156,0.677,5.737,2.028
				c1.58,1.353,2.433,3.036,2.559,5.049c0.147,2.36-0.563,4.359-2.129,5.998c-1.567,1.64-3.558,2.46-5.975,2.46
				C116.47,158.891,114.528,158.187,112.945,156.777z"/>
		</g>
	</g>
	<g>
		<g>
			
				<linearGradient id="SVGID_00000116943306018363354320000018278733659558482367_" gradientUnits="userSpaceOnUse" x1="14.9489" y1="137.735" x2="67.1064" y2="132.4436">
				<stop  offset="0" style="stop-color:#DE183D"/>
				<stop  offset="0.8441" style="stop-color:#FF3056"/>
			</linearGradient>
			<path style="fill:url(#SVGID_00000116943306018363354320000018278733659558482367_);" d="M68.373,106.51
				c-15.649-5.387-34.256,2.222-41.559,16.996c-5.274,10.669-3.208,22.156,4.24,29.745l-5.156,12.151l17.263-4.999
				c14.419,3.88,32.822-1.982,40.418-16.12C92.05,128.519,84.023,111.898,68.373,106.51z"/>
			<path style="fill:#FFFFFF;" d="M23.285,167.72l6.005-14.152c-7.51-8.247-9.028-20.192-3.821-30.726
				c7.614-15.403,27.08-23.366,43.393-17.75c8.342,2.872,14.847,8.912,17.845,16.572c2.917,7.45,2.275,15.735-1.806,23.329
				c-8.206,15.27-27.553,20.578-41.72,16.965L23.285,167.72z M57.868,106.279c-12.161,0-24.256,6.86-29.709,17.891
				c-4.79,9.691-3.233,20.693,3.966,28.029l0.701,0.715l-4.315,10.169l14.635-4.238l0.404,0.108
				c13.074,3.517,31.127-1.274,38.708-15.381c3.657-6.807,4.245-14.199,1.655-20.815c-2.677-6.839-8.519-12.244-16.028-14.829l0,0
				C64.636,106.81,61.249,106.279,57.868,106.279z"/>
		</g>
		<g>
			<path style="fill:#FFFFFF;" d="M51.335,135.699c0.955-1.146,2.28-2.368,3.978-3.668c1.434-1.129,2.486-2.095,3.154-2.899
				c0.668-0.803,0.967-1.77,0.897-2.899c-0.066-1.06-0.555-1.906-1.467-2.539c-0.912-0.633-2.155-0.949-3.727-0.949
				c-1.642,0-3.127,0.334-4.453,1c-1.327,0.667-2.446,1.634-3.359,2.899l-5.633-3.95c1.409-2.086,3.385-3.719,5.928-4.899
				c2.543-1.18,5.456-1.77,8.74-1.77c3.625,0,6.564,0.778,8.816,2.334c2.252,1.557,3.46,3.651,3.624,6.285
				c0.1,1.608-0.113,2.993-0.639,4.155c-0.526,1.163-1.2,2.138-2.024,2.924c-0.823,0.787-1.888,1.676-3.194,2.668
				c-1.437,1.095-2.532,2.044-3.285,2.847c-0.754,0.804-1.216,1.753-1.387,2.847h-7.747
				C49.787,138.307,50.38,136.845,51.335,135.699z M48.896,151.706c-0.942-0.838-1.45-1.855-1.524-3.052
				c-0.09-1.437,0.332-2.617,1.267-3.54c0.934-0.923,2.137-1.385,3.607-1.385c1.334,0,2.47,0.402,3.41,1.206
				c0.939,0.804,1.446,1.804,1.521,3.001c0.087,1.403-0.335,2.591-1.265,3.565c-0.932,0.975-2.115,1.462-3.551,1.462
				C50.992,152.963,49.837,152.544,48.896,151.706z"/>
		</g>
	</g>
	<g>
		
			<linearGradient id="SVGID_00000060716344608079156190000017398153747941373366_" gradientUnits="userSpaceOnUse" x1="170.6336" y1="64.7897" x2="224.7752" y2="61.3881">
			<stop  offset="0" style="stop-color:#001E57"/>
			<stop  offset="0.4975" style="stop-color:#0046CE"/>
		</linearGradient>
		<path style="fill:url(#SVGID_00000060716344608079156190000017398153747941373366_);" d="M202.162,65.692
			c-1.589,0-2.883-1.293-2.883-2.883c0-1.589,1.293-2.883,2.883-2.883c1.59,0,2.883,1.293,2.883,2.883
			C205.045,64.398,203.752,65.692,202.162,65.692z M202.162,60.926c-1.038,0-1.883,0.845-1.883,1.883
			c0,1.039,0.845,1.883,1.883,1.883c1.039,0,1.883-0.845,1.883-1.883C204.045,61.771,203.201,60.926,202.162,60.926z"/>
	</g>
	<g>
		
			<linearGradient id="SVGID_00000163783548698436454670000008624264623002448518_" gradientUnits="userSpaceOnUse" x1="177.8433" y1="179.5468" x2="231.9849" y2="176.1452">
			<stop  offset="0" style="stop-color:#001E57"/>
			<stop  offset="0.4975" style="stop-color:#0046CE"/>
		</linearGradient>
		<path style="fill:url(#SVGID_00000163783548698436454670000008624264623002448518_);" d="M247.438,178.241
			c-1.691,0-3.066-1.375-3.066-3.066s1.376-3.066,3.066-3.066s3.066,1.376,3.066,3.066S249.129,178.241,247.438,178.241z
			 M247.438,173.108c-1.14,0-2.066,0.927-2.066,2.066c0,1.14,0.927,2.066,2.066,2.066c1.14,0,2.066-0.927,2.066-2.066
			C249.505,174.035,248.578,173.108,247.438,173.108z"/>
	</g>
	<g>
		
			<linearGradient id="SVGID_00000075125043081100616560000011415573964723400092_" gradientUnits="userSpaceOnUse" x1="170.7545" y1="66.7244" x2="224.8966" y2="63.3228">
			<stop  offset="0" style="stop-color:#001E57"/>
			<stop  offset="0.4975" style="stop-color:#0046CE"/>
		</linearGradient>
		<path style="fill:url(#SVGID_00000075125043081100616560000011415573964723400092_);" d="M256.42,67.158
			c-3.207,0-5.816-2.609-5.816-5.816c0-3.207,2.609-5.816,5.816-5.816c3.207,0,5.816,2.609,5.816,5.816
			C262.236,64.549,259.627,67.158,256.42,67.158z M256.42,56.526c-2.655,0-4.816,2.161-4.816,4.816c0,2.655,2.161,4.816,4.816,4.816
			c2.655,0,4.816-2.161,4.816-4.816C261.236,58.687,259.076,56.526,256.42,56.526z"/>
	</g>
	<g>
		
			<linearGradient id="SVGID_00000047770066428044992570000002649560835394620588_" gradientUnits="userSpaceOnUse" x1="172.4282" y1="93.3502" x2="226.5698" y2="89.9486">
			<stop  offset="0" style="stop-color:#001E57"/>
			<stop  offset="0.4975" style="stop-color:#0046CE"/>
		</linearGradient>
		<path style="fill:url(#SVGID_00000047770066428044992570000002649560835394620588_);" d="M264.669,90.988
			c-1.893,0-3.433-1.54-3.433-3.433c0-1.893,1.54-3.433,3.433-3.433c1.893,0,3.433,1.54,3.433,3.433
			C268.102,89.448,266.562,90.988,264.669,90.988z M264.669,85.122c-1.341,0-2.433,1.091-2.433,2.433
			c0,1.342,1.091,2.433,2.433,2.433c1.342,0,2.433-1.091,2.433-2.433C267.102,86.213,266.011,85.122,264.669,85.122z"/>
	</g>
	<g>
		
			<linearGradient id="SVGID_00000047052685256045983920000008048835386191591352_" gradientUnits="userSpaceOnUse" x1="171.7239" y1="82.1474" x2="225.8656" y2="78.7459">
			<stop  offset="0" style="stop-color:#001E57"/>
			<stop  offset="0.4975" style="stop-color:#0046CE"/>
		</linearGradient>
		<path style="fill:url(#SVGID_00000047052685256045983920000008048835386191591352_);" d="M170.268,85.489
			c-1.792,0-3.25-1.458-3.25-3.25c0-1.792,1.458-3.249,3.25-3.249c1.792,0,3.249,1.458,3.249,3.249
			C173.517,84.031,172.059,85.489,170.268,85.489z M170.268,79.989c-1.241,0-2.25,1.009-2.25,2.249c0,1.241,1.009,2.25,2.25,2.25
			c1.24,0,2.249-1.009,2.249-2.25C172.517,80.999,171.508,79.989,170.268,79.989z"/>
	</g>
	<g>
		
			<linearGradient id="SVGID_00000062194643679565564740000008332279682098962335_" gradientUnits="userSpaceOnUse" x1="71.5207" y1="91.802" x2="131.0484" y2="77.3453">
			<stop  offset="0.1262" style="stop-color:#FF7200"/>
			<stop  offset="0.3764" style="stop-color:#FF8700"/>
			<stop  offset="0.7186" style="stop-color:#FF9E00"/>
			<stop  offset="0.9332" style="stop-color:#FFA700"/>
		</linearGradient>
		<path style="fill:url(#SVGID_00000062194643679565564740000008332279682098962335_);" d="M148.637,79.256
			c-3.409,0-6.182-2.773-6.182-6.183s2.773-6.183,6.182-6.183c3.409,0,6.183,2.773,6.183,6.183S152.046,79.256,148.637,79.256z
			 M148.637,67.891c-2.858,0-5.182,2.325-5.182,5.183c0,2.858,2.325,5.183,5.182,5.183c2.858,0,5.183-2.325,5.183-5.183
			C153.82,70.216,151.495,67.891,148.637,67.891z"/>
	</g>
	<g>
		
			<linearGradient id="SVGID_00000178887526739371778530000014087882099002737309_" gradientUnits="userSpaceOnUse" x1="70.2804" y1="86.6931" x2="129.8078" y2="72.2365">
			<stop  offset="0.1262" style="stop-color:#FF7200"/>
			<stop  offset="0.3764" style="stop-color:#FF8700"/>
			<stop  offset="0.7186" style="stop-color:#FF9E00"/>
			<stop  offset="0.9332" style="stop-color:#FFA700"/>
		</linearGradient>
		<path style="fill:url(#SVGID_00000178887526739371778530000014087882099002737309_);" d="M97.679,83.289
			c-1.792,0-3.25-1.457-3.25-3.249s1.458-3.25,3.25-3.25s3.249,1.458,3.249,3.25S99.471,83.289,97.679,83.289z M97.679,77.79
			c-1.24,0-2.25,1.009-2.25,2.25c0,1.24,1.009,2.249,2.25,2.249c1.24,0,2.249-1.009,2.249-2.249
			C99.928,78.799,98.919,77.79,97.679,77.79z"/>
	</g>
	<g>
		
			<linearGradient id="SVGID_00000065759796344029037620000001496475748865049514_" gradientUnits="userSpaceOnUse" x1="95.8599" y1="192.0219" x2="155.3876" y2="177.5652">
			<stop  offset="0.1262" style="stop-color:#FF7200"/>
			<stop  offset="0.3764" style="stop-color:#FF8700"/>
			<stop  offset="0.7186" style="stop-color:#FF9E00"/>
			<stop  offset="0.9332" style="stop-color:#FFA700"/>
		</linearGradient>
		<path style="fill:url(#SVGID_00000065759796344029037620000001496475748865049514_);" d="M142.588,186.306
			c-3.105,0-5.632-2.527-5.632-5.633c0-3.105,2.527-5.632,5.632-5.632c3.105,0,5.632,2.527,5.632,5.632
			C148.221,183.779,145.694,186.306,142.588,186.306z M142.588,176.041c-2.554,0-4.632,2.078-4.632,4.632
			c0,2.555,2.078,4.633,4.632,4.633s4.632-2.078,4.632-4.633C147.221,178.119,145.143,176.041,142.588,176.041z"/>
	</g>
	<g>
		
			<linearGradient id="SVGID_00000148624524232275439260000000533493814439549832_" gradientUnits="userSpaceOnUse" x1="93.214" y1="181.1267" x2="152.7415" y2="166.67">
			<stop  offset="0.1262" style="stop-color:#FF7200"/>
			<stop  offset="0.3764" style="stop-color:#FF8700"/>
			<stop  offset="0.7186" style="stop-color:#FF9E00"/>
			<stop  offset="0.9332" style="stop-color:#FFA700"/>
		</linearGradient>
		<path style="fill:url(#SVGID_00000148624524232275439260000000533493814439549832_);" d="M153.953,167.976
			c-0.882,0-1.6-0.718-1.6-1.6c0-0.882,0.718-1.6,1.6-1.6c0.882,0,1.6,0.718,1.6,1.6
			C155.553,167.258,154.835,167.976,153.953,167.976z M153.953,165.776c-0.331,0-0.6,0.269-0.6,0.6c0,0.331,0.269,0.6,0.6,0.6
			c0.331,0,0.6-0.269,0.6-0.6C154.553,166.045,154.284,165.776,153.953,165.776z"/>
	</g>
	<g>
		
			<linearGradient id="SVGID_00000028284794124911240970000005091249021571533985_" gradientUnits="userSpaceOnUse" x1="92.9277" y1="179.9471" x2="152.4552" y2="165.4904">
			<stop  offset="0.1262" style="stop-color:#FF7200"/>
			<stop  offset="0.3764" style="stop-color:#FF8700"/>
			<stop  offset="0.7186" style="stop-color:#FF9E00"/>
			<stop  offset="0.9332" style="stop-color:#FFA700"/>
		</linearGradient>
		<path style="fill:url(#SVGID_00000028284794124911240970000005091249021571533985_);" d="M104.278,180.074
			c-1.589,0-2.883-1.293-2.883-2.883c0-1.59,1.293-2.883,2.883-2.883c1.589,0,2.883,1.294,2.883,2.883
			C107.161,178.78,105.867,180.074,104.278,180.074z M104.278,175.308c-1.038,0-1.883,0.845-1.883,1.883
			c0,1.038,0.845,1.883,1.883,1.883s1.883-0.845,1.883-1.883C106.161,176.152,105.316,175.308,104.278,175.308z"/>
	</g>
	<g>
		
			<linearGradient id="SVGID_00000086653564872756013580000002554340335662547387_" gradientUnits="userSpaceOnUse" x1="97.2093" y1="197.5783" x2="156.7373" y2="183.1215">
			<stop  offset="0.1262" style="stop-color:#FF7200"/>
			<stop  offset="0.3764" style="stop-color:#FF8700"/>
			<stop  offset="0.7186" style="stop-color:#FF9E00"/>
			<stop  offset="0.9332" style="stop-color:#FFA700"/>
		</linearGradient>
		<path style="fill:url(#SVGID_00000086653564872756013580000002554340335662547387_);" d="M120.775,196.205
			c-2.398,0-4.349-1.951-4.349-4.35c0-2.398,1.951-4.349,4.349-4.349c2.398,0,4.35,1.951,4.35,4.349
			C125.124,194.253,123.173,196.205,120.775,196.205z M120.775,188.506c-1.847,0-3.349,1.503-3.349,3.349
			c0,1.847,1.503,3.35,3.349,3.35c1.847,0,3.35-1.503,3.35-3.35C124.124,190.008,122.622,188.506,120.775,188.506z"/>
	</g>
	<g>
		
			<linearGradient id="SVGID_00000164499417024750837900000017321933035469615233_" gradientUnits="userSpaceOnUse" x1="93.6291" y1="182.8354" x2="153.1566" y2="168.3788">
			<stop  offset="0.1262" style="stop-color:#FF7200"/>
			<stop  offset="0.3764" style="stop-color:#FF8700"/>
			<stop  offset="0.7186" style="stop-color:#FF9E00"/>
			<stop  offset="0.9332" style="stop-color:#FFA700"/>
		</linearGradient>
		<path style="fill:url(#SVGID_00000164499417024750837900000017321933035469615233_);" d="M86.681,186.306
			c-0.983,0-1.783-0.8-1.783-1.783c0-0.983,0.8-1.783,1.783-1.783c0.983,0,1.783,0.8,1.783,1.783
			C88.464,185.506,87.664,186.306,86.681,186.306z M86.681,183.74c-0.432,0-0.783,0.352-0.783,0.783
			c0,0.432,0.352,0.783,0.783,0.783c0.432,0,0.783-0.352,0.783-0.783C87.464,184.091,87.112,183.74,86.681,183.74z"/>
	</g>
	<g>
		
			<linearGradient id="SVGID_00000087383576325413872060000015892145233321336988_" gradientUnits="userSpaceOnUse" x1="71.942" y1="93.5355" x2="131.4694" y2="79.0789">
			<stop  offset="0.1262" style="stop-color:#FF7200"/>
			<stop  offset="0.3764" style="stop-color:#FF8700"/>
			<stop  offset="0.7186" style="stop-color:#FF9E00"/>
			<stop  offset="0.9332" style="stop-color:#FFA700"/>
		</linearGradient>
		<path style="fill:url(#SVGID_00000087383576325413872060000015892145233321336988_);" d="M77.699,95.753
			c-1.994,0-3.616-1.622-3.616-3.616c0-1.994,1.622-3.616,3.616-3.616c1.994,0,3.616,1.622,3.616,3.616
			C81.315,94.131,79.693,95.753,77.699,95.753z M77.699,89.521c-1.442,0-2.616,1.173-2.616,2.616s1.174,2.616,2.616,2.616
			s2.616-1.174,2.616-2.616S79.141,89.521,77.699,89.521z"/>
	</g>
	<g>
		
			<linearGradient id="SVGID_00000042728190493592697450000003413978214788413568_" gradientUnits="userSpaceOnUse" x1="67.3103" y1="74.4654" x2="126.8383" y2="60.0086">
			<stop  offset="0.1262" style="stop-color:#FF7200"/>
			<stop  offset="0.3764" style="stop-color:#FF8700"/>
			<stop  offset="0.7186" style="stop-color:#FF9E00"/>
			<stop  offset="0.9332" style="stop-color:#FFA700"/>
		</linearGradient>
		<path style="fill:url(#SVGID_00000042728190493592697450000003413978214788413568_);" d="M120.592,66.792
			c-2.904,0-5.266-2.362-5.266-5.266c0-2.903,2.362-5.266,5.266-5.266c2.904,0,5.266,2.362,5.266,5.266
			C125.858,64.429,123.496,66.792,120.592,66.792z M120.592,57.26c-2.353,0-4.266,1.914-4.266,4.266
			c0,2.352,1.914,4.266,4.266,4.266c2.353,0,4.266-1.914,4.266-4.266C124.858,59.173,122.944,57.26,120.592,57.26z"/>
	</g>
	<g>
		
			<linearGradient id="SVGID_00000119101127136298410360000008453087711924142750_" gradientUnits="userSpaceOnUse" x1="-16.1888" y1="114.1935" x2="44.4725" y2="98.603">
			<stop  offset="0" style="stop-color:#DE183D"/>
			<stop  offset="0.8441" style="stop-color:#FF3056"/>
		</linearGradient>
		<path style="fill:url(#SVGID_00000119101127136298410360000008453087711924142750_);" d="M36.822,104.186
			c-1.994,0-3.616-1.622-3.616-3.616c0-1.994,1.622-3.616,3.616-3.616c1.994,0,3.616,1.622,3.616,3.616
			C40.438,102.563,38.816,104.186,36.822,104.186z M36.822,97.953c-1.442,0-2.616,1.174-2.616,2.616s1.174,2.616,2.616,2.616
			c1.442,0,2.616-1.174,2.616-2.616S38.264,97.953,36.822,97.953z"/>
	</g>
	<g>
		
			<linearGradient id="SVGID_00000049214891422395486110000010567600672079906456_" gradientUnits="userSpaceOnUse" x1="-5.6807" y1="155.0808" x2="54.9812" y2="139.4902">
			<stop  offset="0" style="stop-color:#DE183D"/>
			<stop  offset="0.8441" style="stop-color:#FF3056"/>
		</linearGradient>
		<path style="fill:url(#SVGID_00000049214891422395486110000010567600672079906456_);" d="M11.709,154.411
			c-2.095,0-3.799-1.705-3.799-3.8c0-2.095,1.705-3.799,3.799-3.799c2.095,0,3.799,1.705,3.799,3.799
			C15.508,152.706,13.804,154.411,11.709,154.411z M11.709,147.812c-1.543,0-2.799,1.256-2.799,2.799c0,1.544,1.256,2.8,2.799,2.8
			c1.543,0,2.799-1.256,2.799-2.8C14.508,149.068,13.252,147.812,11.709,147.812z"/>
	</g>
	<g>
		
			<linearGradient id="SVGID_00000109720521364605394010000014641411762275553976_" gradientUnits="userSpaceOnUse" x1="2.6164" y1="187.3627" x2="63.2776" y2="171.7722">
			<stop  offset="0" style="stop-color:#DE183D"/>
			<stop  offset="0.8441" style="stop-color:#FF3056"/>
		</linearGradient>
		<path style="fill:url(#SVGID_00000109720521364605394010000014641411762275553976_);" d="M50.753,180.807
			c-3.207,0-5.816-2.609-5.816-5.816s2.609-5.816,5.816-5.816s5.816,2.609,5.816,5.816S53.96,180.807,50.753,180.807z
			 M50.753,170.175c-2.655,0-4.816,2.161-4.816,4.816s2.161,4.816,4.816,4.816s4.816-2.161,4.816-4.816
			S53.408,170.175,50.753,170.175z"/>
	</g>
	<g>
		
			<linearGradient id="SVGID_00000178918763668362897760000006565901740760449211_" gradientUnits="userSpaceOnUse" x1="1.5351" y1="183.1554" x2="62.1966" y2="167.5648">
			<stop  offset="0" style="stop-color:#DE183D"/>
			<stop  offset="0.8441" style="stop-color:#FF3056"/>
		</linearGradient>
		<path style="fill:url(#SVGID_00000178918763668362897760000006565901740760449211_);" d="M64.684,169.442
			c-1.388,0-2.517-1.129-2.517-2.516c0-1.388,1.129-2.517,2.517-2.517c1.387,0,2.516,1.129,2.516,2.517
			C67.2,168.313,66.071,169.442,64.684,169.442z M64.684,165.409c-0.836,0-1.517,0.68-1.517,1.517c0,0.836,0.68,1.516,1.517,1.516
			c0.836,0,1.516-0.68,1.516-1.516C66.2,166.089,65.52,165.409,64.684,165.409z"/>
	</g>
	<g>
		
			<linearGradient id="SVGID_00000110445598880447999340000016742709822391134395_" gradientUnits="userSpaceOnUse" x1="1.877" y1="184.4859" x2="62.538" y2="168.8955">
			<stop  offset="0" style="stop-color:#DE183D"/>
			<stop  offset="0.8441" style="stop-color:#FF3056"/>
		</linearGradient>
		<path style="fill:url(#SVGID_00000110445598880447999340000016742709822391134395_);" d="M31.689,178.974
			c-1.185,0-2.149-0.964-2.149-2.149c0-1.186,0.964-2.15,2.149-2.15c1.186,0,2.15,0.964,2.15,2.15
			C33.839,178.009,32.875,178.974,31.689,178.974z M31.689,175.674c-0.634,0-1.149,0.516-1.149,1.15
			c0,0.634,0.516,1.149,1.149,1.149c0.634,0,1.15-0.516,1.15-1.149C32.839,176.19,32.323,175.674,31.689,175.674z"/>
	</g>
	<g>
		
			<linearGradient id="SVGID_00000057866890969467336570000007806701017786443409_" gradientUnits="userSpaceOnUse" x1="-13.6733" y1="123.9825" x2="46.9884" y2="108.3919">
			<stop  offset="0" style="stop-color:#DE183D"/>
			<stop  offset="0.8441" style="stop-color:#FF3056"/>
		</linearGradient>
		<path style="fill:url(#SVGID_00000057866890969467336570000007806701017786443409_);" d="M15.375,122.149
			c-3.106,0-5.632-2.527-5.632-5.632c0-3.106,2.527-5.633,5.632-5.633c3.106,0,5.633,2.527,5.633,5.633
			C21.008,119.622,18.481,122.149,15.375,122.149z M15.375,111.884c-2.554,0-4.632,2.078-4.632,4.633
			c0,2.554,2.078,4.632,4.632,4.632c2.555,0,4.633-2.078,4.633-4.632C20.008,113.962,17.93,111.884,15.375,111.884z"/>
	</g>
	<g>
		
			<linearGradient id="SVGID_00000075135333324831286790000016899127011038011810_" gradientUnits="userSpaceOnUse" x1="-15.6362" y1="116.3428" x2="45.025" y2="100.7523">
			<stop  offset="0" style="stop-color:#DE183D"/>
			<stop  offset="0.8441" style="stop-color:#FF3056"/>
		</linearGradient>
		<path style="fill:url(#SVGID_00000075135333324831286790000016899127011038011810_);" d="M56.435,100.153
			c-1.287,0-2.333-1.046-2.333-2.333s1.046-2.333,2.333-2.333c1.287,0,2.333,1.046,2.333,2.333S57.722,100.153,56.435,100.153z
			 M56.435,96.487c-0.735,0-1.333,0.598-1.333,1.333c0,0.735,0.598,1.333,1.333,1.333c0.735,0,1.333-0.598,1.333-1.333
			C57.768,97.085,57.17,96.487,56.435,96.487z"/>
	</g>
	<g>
		
			<linearGradient id="SVGID_00000000222855165066780850000014678159111263831481_" gradientUnits="userSpaceOnUse" x1="170.575" y1="63.8623" x2="224.7167" y2="60.4607">
			<stop  offset="0" style="stop-color:#001E57"/>
			<stop  offset="0.4975" style="stop-color:#0046CE"/>
		</linearGradient>
		<path style="fill:url(#SVGID_00000000222855165066780850000014678159111263831481_);" d="M228.191,70.091
			c-5.43,0-9.848-4.418-9.848-9.848c0-5.431,4.418-9.849,9.848-9.849c5.431,0,9.849,4.418,9.849,9.849
			C238.04,65.673,233.622,70.091,228.191,70.091z M228.191,51.394c-4.879,0-8.848,3.97-8.848,8.849c0,4.879,3.969,8.848,8.848,8.848
			c4.879,0,8.849-3.969,8.849-8.848C237.04,55.364,233.07,51.394,228.191,51.394z"/>
	</g>
	<g>
		
			<linearGradient id="SVGID_00000058566696420418349700000000573932468924406934_" gradientUnits="userSpaceOnUse" x1="178.2285" y1="185.6763" x2="232.3701" y2="182.2747">
			<stop  offset="0" style="stop-color:#001E57"/>
			<stop  offset="0.4975" style="stop-color:#0046CE"/>
		</linearGradient>
		<path style="fill:url(#SVGID_00000058566696420418349700000000573932468924406934_);" d="M217.01,189.605
			c-3.51,0-6.366-2.855-6.366-6.366c0-3.51,2.856-6.366,6.366-6.366c3.51,0,6.366,2.855,6.366,6.366
			C223.376,186.75,220.52,189.605,217.01,189.605z M217.01,177.874c-2.959,0-5.366,2.407-5.366,5.366s2.407,5.366,5.366,5.366
			c2.959,0,5.366-2.407,5.366-5.366S219.969,177.874,217.01,177.874z"/>
	</g>
	<g>
		
			<linearGradient id="SVGID_00000053507519313489053390000001914050553473058458_" gradientUnits="userSpaceOnUse" x1="177.7331" y1="177.7917" x2="231.8746" y2="174.3902">
			<stop  offset="0" style="stop-color:#001E57"/>
			<stop  offset="0.4975" style="stop-color:#0046CE"/>
		</linearGradient>
		<path style="fill:url(#SVGID_00000053507519313489053390000001914050553473058458_);" d="M184.382,179.707
			c-1.287,0-2.333-1.046-2.333-2.333c0-1.287,1.046-2.333,2.333-2.333c1.287,0,2.333,1.046,2.333,2.333
			C186.715,178.661,185.668,179.707,184.382,179.707z M184.382,176.041c-0.735,0-1.333,0.598-1.333,1.333s0.598,1.333,1.333,1.333
			c0.735,0,1.333-0.598,1.333-1.333S185.117,176.041,184.382,176.041z"/>
	</g>
	<g>
		
			<linearGradient id="SVGID_00000174598150397037420110000007512060995783453874_" gradientUnits="userSpaceOnUse" x1="176.765" y1="162.3784" x2="230.9064" y2="158.9769">
			<stop  offset="0" style="stop-color:#001E57"/>
			<stop  offset="0.4975" style="stop-color:#0046CE"/>
		</linearGradient>
		<path style="fill:url(#SVGID_00000174598150397037420110000007512060995783453874_);" d="M260.366,159.276
			c-1.186,0-2.15-0.964-2.15-2.15c0-1.186,0.964-2.15,2.15-2.15c1.185,0,2.149,0.964,2.149,2.15
			C262.516,158.311,261.551,159.276,260.366,159.276z M260.366,155.976c-0.634,0-1.15,0.516-1.15,1.15c0,0.634,0.516,1.15,1.15,1.15
			c0.634,0,1.149-0.516,1.149-1.15C261.516,156.492,261,155.976,260.366,155.976z"/>
	</g>
	<g>
		
			<linearGradient id="SVGID_00000026880449564836555320000017823508223200739007_" gradientUnits="userSpaceOnUse" x1="175.1041" y1="135.941" x2="229.2457" y2="132.5395">
			<stop  offset="0" style="stop-color:#001E57"/>
			<stop  offset="0.4975" style="stop-color:#0046CE"/>
		</linearGradient>
		<path style="fill:url(#SVGID_00000026880449564836555320000017823508223200739007_);" d="M274.201,133.148
			c-1.893,0-3.433-1.54-3.433-3.433c0-1.893,1.54-3.433,3.433-3.433c1.893,0,3.433,1.54,3.433,3.433
			C277.634,131.608,276.094,133.148,274.201,133.148z M274.201,127.282c-1.342,0-2.433,1.091-2.433,2.433
			c0,1.342,1.091,2.433,2.433,2.433c1.341,0,2.433-1.091,2.433-2.433C276.634,128.374,275.542,127.282,274.201,127.282z"/>
	</g>
	<g>
		<g>
			<path style="fill:#0046CE;" d="M108.333,229.328h-7.223c-2.141,0-3.211-1.116-3.211-3.349v-13.118
				c0-2.269,1.062-3.404,3.183-3.404h2.547c2.121,0,3.183,1.135,3.183,3.404v14.059h1.521V229.328z M104.154,226.919v-13.893
				c0-0.775-0.396-1.163-1.189-1.163h-1.246c-0.775,0-1.162,0.388-1.162,1.163v12.731c0,0.774,0.396,1.162,1.19,1.162H104.154z"/>
			<path style="fill:#0046CE;" d="M119.044,209.457v16.107c0,2.509-1.07,3.764-3.211,3.764h-2.241c-2.122,0-3.183-1.264-3.183-3.792
				v-16.079h2.656v16.162c0,0.868,0.388,1.301,1.162,1.301h1.08c0.719,0,1.079-0.433,1.079-1.301v-16.162H119.044z"/>
			<path style="fill:#0046CE;" d="M122.364,229.328v-19.871h6.587v2.407h-3.93v6.033h3.486v2.408h-3.486v6.614h3.93v2.408H122.364z"
				/>
			<path style="fill:#0046CE;" d="M136.783,214.797v-1.743c0-0.793-0.388-1.19-1.162-1.19h-0.415c-0.757,0-1.135,0.397-1.135,1.19
				v3.293c0,0.37,0.073,0.619,0.221,0.748c0.147,0.129,0.388,0.295,0.72,0.498l2.519,1.355c0.554,0.314,0.945,0.559,1.177,0.733
				c0.23,0.176,0.41,0.388,0.539,0.637c0.129,0.249,0.194,0.725,0.194,1.426v4.234c0,2.232-1.07,3.349-3.211,3.349h-1.633
				c-2.122,0-3.183-1.218-3.183-3.653v-0.996h2.657v1.079c0,0.774,0.396,1.162,1.189,1.162h0.471c0.701,0,1.052-0.388,1.052-1.162
				v-3.377c0-0.368-0.074-0.617-0.222-0.747c-0.147-0.129-0.387-0.295-0.72-0.498l-2.518-1.411
				c-0.554-0.295-0.955-0.544-1.204-0.747c-0.249-0.203-0.429-0.466-0.54-0.789c-0.11-0.322-0.166-0.742-0.166-1.259v-4.068
				c0-2.269,1.061-3.404,3.183-3.404h1.661c2.121,0,3.183,1.135,3.183,3.404v1.937H136.783z"/>
			<path style="fill:#0046CE;" d="M146.719,211.864v17.464h-2.657v-17.464h-2.546v-2.407h7.749v2.407H146.719z"/>
			<path style="fill:#0046CE;" d="M151.616,229.328v-19.871h2.657v19.871H151.616z"/>
			<path style="fill:#0046CE;" d="M160.666,229.328c-2.141,0-3.211-1.125-3.211-3.377v-13.09c0-2.269,1.062-3.404,3.183-3.404h2.547
				c2.121,0,3.183,1.135,3.183,3.404v13.09c0,2.252-1.07,3.377-3.211,3.377H160.666z M161.303,226.919h1.355
				c0.701,0,1.052-0.388,1.052-1.162v-12.731c0-0.775-0.396-1.163-1.19-1.163h-1.246c-0.774,0-1.162,0.388-1.162,1.163v12.731
				C160.112,226.532,160.509,226.919,161.303,226.919z"/>
			<path style="fill:#0046CE;" d="M175.058,219.06v-9.604h2.656v19.871h-2.656v-3.958l-2.851-9.05v13.008h-2.657v-19.871h2.657
				L175.058,219.06z"/>
			<path style="fill:#0046CE;" d="M186.127,214.797v-1.743c0-0.793-0.388-1.19-1.162-1.19h-0.415c-0.757,0-1.135,0.397-1.135,1.19
				v3.293c0,0.37,0.073,0.619,0.221,0.748c0.147,0.129,0.388,0.295,0.72,0.498l2.518,1.355c0.554,0.314,0.945,0.559,1.177,0.733
				c0.23,0.176,0.41,0.388,0.539,0.637c0.129,0.249,0.194,0.725,0.194,1.426v4.234c0,2.232-1.07,3.349-3.211,3.349h-1.633
				c-2.122,0-3.183-1.218-3.183-3.653v-0.996h2.657v1.079c0,0.774,0.396,1.162,1.189,1.162h0.471c0.701,0,1.052-0.388,1.052-1.162
				v-3.377c0-0.368-0.074-0.617-0.222-0.747c-0.148-0.129-0.387-0.295-0.72-0.498l-2.518-1.411
				c-0.554-0.295-0.955-0.544-1.204-0.747c-0.249-0.203-0.429-0.466-0.54-0.789c-0.11-0.322-0.166-0.742-0.166-1.259v-4.068
				c0-2.269,1.061-3.404,3.183-3.404h1.661c2.121,0,3.183,1.135,3.183,3.404v1.937H186.127z"/>
		</g>
		<g>
			<path style="fill:#0046CE;" d="M122.987,235.342c0.123,0.161,0.185,0.356,0.185,0.585c0,0.334-0.134,0.592-0.402,0.773
				c-0.269,0.181-0.657,0.271-1.165,0.271h-2.059v-3.811h1.949c0.486,0,0.856,0.09,1.11,0.27c0.255,0.18,0.382,0.422,0.382,0.727
				c0,0.182-0.045,0.344-0.134,0.487c-0.089,0.144-0.215,0.257-0.378,0.341C122.693,235.062,122.863,235.18,122.987,235.342z
				 M120.613,233.94v0.735h0.74c0.363,0,0.545-0.124,0.545-0.37c0-0.243-0.182-0.365-0.545-0.365H120.613z M122.083,235.807
				c0-0.258-0.188-0.387-0.566-0.387h-0.903v0.773h0.903C121.895,236.194,122.083,236.065,122.083,235.807z"/>
			<path style="fill:#0046CE;" d="M127.048,236.232h-1.611l-0.299,0.74h-1.1l1.682-3.811h1.062l1.687,3.811h-1.121L127.048,236.232z
				 M126.732,235.437l-0.49-1.22l-0.489,1.22H126.732z"/>
			<path style="fill:#0046CE;" d="M130.307,236.796c-0.318-0.169-0.567-0.403-0.749-0.705c-0.182-0.301-0.272-0.643-0.272-1.023
				c0-0.381,0.091-0.722,0.272-1.023c0.182-0.301,0.431-0.536,0.749-0.705c0.317-0.169,0.676-0.253,1.075-0.253
				c0.348,0,0.662,0.062,0.941,0.186c0.279,0.123,0.512,0.301,0.696,0.533l-0.686,0.62c-0.247-0.297-0.546-0.446-0.898-0.446
				c-0.207,0-0.391,0.046-0.553,0.137c-0.161,0.091-0.286,0.219-0.375,0.384c-0.089,0.165-0.134,0.355-0.134,0.568
				c0,0.214,0.045,0.404,0.134,0.569c0.089,0.165,0.214,0.293,0.375,0.384c0.162,0.091,0.346,0.136,0.553,0.136
				c0.353,0,0.651-0.148,0.898-0.446l0.686,0.62c-0.184,0.232-0.417,0.41-0.696,0.534c-0.279,0.123-0.594,0.185-0.941,0.185
				C130.982,237.048,130.624,236.964,130.307,236.796z"/>
			<path style="fill:#0046CE;" d="M135.732,235.589l-0.403,0.431v0.952h-1.067v-3.811h1.067v1.584l1.476-1.584h1.187l-1.557,1.688
				l1.639,2.123h-1.252L135.732,235.589z"/>
			<path style="fill:#0046CE;" d="M141.534,234.986h0.953v1.578c-0.218,0.156-0.468,0.276-0.751,0.359
				c-0.283,0.084-0.566,0.125-0.85,0.125c-0.399,0-0.759-0.084-1.078-0.253c-0.319-0.169-0.569-0.403-0.751-0.705
				c-0.182-0.301-0.272-0.643-0.272-1.023c0-0.381,0.091-0.722,0.272-1.023c0.182-0.301,0.434-0.536,0.757-0.705
				c0.323-0.169,0.688-0.253,1.094-0.253c0.356,0,0.676,0.06,0.959,0.18c0.282,0.12,0.519,0.292,0.707,0.518l-0.686,0.62
				c-0.258-0.283-0.566-0.425-0.926-0.425c-0.326,0-0.59,0.1-0.789,0.297c-0.2,0.198-0.3,0.462-0.3,0.792
				c0,0.211,0.046,0.398,0.137,0.563c0.09,0.165,0.218,0.294,0.381,0.387c0.163,0.093,0.35,0.139,0.561,0.139
				c0.207,0,0.401-0.042,0.582-0.125V234.986z"/>
			<path style="fill:#0046CE;" d="M145.601,235.96h-0.588v1.013h-1.078v-3.811h1.742c0.345,0,0.645,0.058,0.898,0.172
				c0.254,0.114,0.45,0.277,0.588,0.489c0.138,0.213,0.207,0.462,0.207,0.749c0,0.275-0.064,0.517-0.193,0.721
				c-0.129,0.205-0.313,0.366-0.553,0.482l0.822,1.197h-1.154L145.601,235.96z M146.112,234.158
				c-0.112-0.098-0.279-0.146-0.501-0.146h-0.599v1.115h0.599c0.222,0,0.389-0.048,0.501-0.143c0.112-0.097,0.169-0.233,0.169-0.411
				C146.281,234.394,146.225,234.256,146.112,234.158z"/>
			<path style="fill:#0046CE;" d="M149.561,236.792c-0.321-0.17-0.573-0.406-0.757-0.707c-0.183-0.302-0.274-0.641-0.274-1.018
				c0-0.377,0.092-0.717,0.274-1.018c0.184-0.302,0.436-0.537,0.757-0.708c0.321-0.171,0.684-0.256,1.086-0.256
				c0.403,0,0.766,0.085,1.086,0.256c0.321,0.171,0.574,0.406,0.757,0.708c0.184,0.301,0.275,0.641,0.275,1.018
				c0,0.378-0.092,0.717-0.275,1.018c-0.183,0.301-0.436,0.537-0.757,0.707c-0.32,0.171-0.683,0.256-1.086,0.256
				C150.245,237.048,149.883,236.963,149.561,236.792z M151.17,236.02c0.156-0.091,0.28-0.219,0.371-0.384
				c0.09-0.165,0.136-0.355,0.136-0.569c0-0.214-0.046-0.403-0.136-0.568c-0.091-0.165-0.215-0.293-0.371-0.384
				c-0.155-0.091-0.33-0.137-0.522-0.137c-0.192,0-0.366,0.046-0.523,0.137c-0.156,0.091-0.279,0.219-0.37,0.384
				c-0.091,0.165-0.136,0.355-0.136,0.568c0,0.214,0.045,0.404,0.136,0.569c0.091,0.165,0.214,0.293,0.37,0.384
				c0.156,0.091,0.33,0.136,0.523,0.136C150.84,236.156,151.015,236.111,151.17,236.02z"/>
			<path style="fill:#0046CE;" d="M154.532,236.585c-0.314-0.308-0.471-0.745-0.471-1.311v-2.112h1.077v2.08
				c0,0.609,0.241,0.914,0.725,0.914c0.479,0,0.719-0.305,0.719-0.914v-2.08h1.062v2.112c0,0.566-0.157,1.004-0.472,1.311
				c-0.314,0.309-0.754,0.463-1.319,0.463C155.286,237.048,154.846,236.894,154.532,236.585z"/>
			<path style="fill:#0046CE;" d="M162.761,233.162v3.811h-0.888l-1.683-2.03v2.03h-1.056v-3.811h0.888l1.682,2.03v-2.03H162.761z"
				/>
			<path style="fill:#0046CE;" d="M164.284,233.162h1.803c0.417,0,0.787,0.078,1.11,0.234c0.323,0.156,0.573,0.377,0.751,0.664
				c0.178,0.286,0.267,0.622,0.267,1.007c0,0.385-0.089,0.721-0.267,1.007c-0.178,0.287-0.428,0.509-0.751,0.665
				c-0.323,0.155-0.693,0.233-1.11,0.233h-1.803V233.162z M166.043,236.112c0.327,0,0.589-0.092,0.787-0.277
				c0.197-0.185,0.296-0.44,0.296-0.768c0-0.326-0.099-0.582-0.296-0.768c-0.198-0.185-0.46-0.277-0.787-0.277h-0.681v2.09H166.043z
				"/>
		</g>
	</g>
</g>
</svg>
